<svg width="12" height="12" viewBox="0 0 12 12" fill="none" xmlns="http://www.w3.org/2000/svg">
<rect y="6.54546" width="5.45455" height="5.45455" rx="0.5" fill="#393939"/>
<rect x="6.54541" y="6.54546" width="5.45455" height="5.45455" rx="0.5" fill="#393939"/>
<path d="M6.84137 0.169341C6.93629 0.0616797 7.0729 0 7.21642 0H11.4999C11.7761 0 11.9999 0.223858 11.9999 0.5V4.95455C11.9999 5.23069 11.7761 5.45455 11.4999 5.45455H3.28915C2.85869 5.45455 2.62943 4.94678 2.9141 4.62389L6.84137 0.169341Z" fill="#393939"/>
<path d="M0 0.5C0 0.223858 0.223858 0 0.5 0H4.79289C5.23835 0 5.46143 0.538571 5.14645 0.853553L0.853554 5.14645C0.538571 5.46143 0 5.23835 0 4.79289V0.5Z" fill="#393939"/>
</svg>
